<svg xmlns="http://www.w3.org/2000/svg" viewBox="0 0 1440 800" preserveAspectRatio="xMidYMid slice">
  <rect width="1440" height="800" fill="#A0D8EF" />
  <circle cx="720" cy="200" r="100" fill="url(#sunGrad)" filter="drop-shadow(0 0 40px rgba(255,215,0,0.6))" />
  <defs>
    <radialGradient id="sunGrad" cx="50%" cy="50%" r="50%" fx="50%" fy="50%">
      <stop offset="0%" stop-color="#FFD700" />
      <stop offset="80%" stop-color="#FFA500" />
    </radialGradient>
  </defs>
  <path fill="#6DB272" d="M0,500L48,505.3C96,511,192,521,288,537.3C384,553,480,575,576,558.7C672,543,768,489,864,489.3C960,489,1056,543,1152,542.7C1248,543,1344,489,1392,462.7L1440,436L1440,800L1392,800C1344,800,1248,800,1152,800C1056,800,960,800,864,800C768,800,672,800,576,800C480,800,384,800,288,800C192,800,96,800,48,800L0,800Z"></path>
  <path fill="#549959" d="M0,600L60,589.3C120,579,240,557,360,557.3C480,557,600,579,720,594.7C840,611,960,621,1080,610.7C1200,600,1320,568,1380,552L1440,536L1440,800L1380,800C1320,800,1200,800,1080,800C960,800,840,800,720,800C600,800,480,800,360,800C240,800,120,800,60,800L0,800Z"></path>
  <path fill="#ffffff" opacity="0.8" d="M200,150 Q230,130 250,150 Q280,140 290,170 Q310,180 290,200 Q270,220 230,210 Q200,220 180,200 Q160,180 180,160 Q170,140 200,150Z" />
  <path fill="#ffffff" opacity="0.6" d="M1100,250 Q1130,230 1150,250 Q1180,240 1190,270 Q1210,280 1190,300 Q1170,320 1130,310 Q1100,320 1080,300 Q1060,280 1080,260 Q1070,240 1100,250Z" />
</svg>
